<svg xmlns="http://www.w3.org/2000/svg" xmlns:xlink="http://www.w3.org/1999/xlink" width="469" height="31" version="1.1" viewBox="0 0 469 31"><title>footer</title><desc>Created with Sketch.</desc><defs><linearGradient id="linearGradient-1" x1="14.7%" x2="14.7%" y1="50%" y2="100%"><stop offset="0%" stop-color="#EA053A" stop-opacity="0"/><stop offset="100%" stop-color="#D0021B" stop-opacity=".16"/></linearGradient><text id="text-2" fill="#D0021B" font-family="Arial-Black, Arial Black" font-size="32" font-weight="700"><tspan x="36.445" y="28">XSS</tspan></text><filter id="filter-3" width="101.4%" height="104.8%" x="-.7%" y="-1.2%" filterUnits="objectBoundingBox"><feOffset dx="0" dy="1" in="SourceAlpha" result="shadowOffsetOuter1"/><feColorMatrix in="shadowOffsetOuter1" type="matrix" values="0 0 0 0 1 0 0 0 0 1 0 0 0 0 1 0 0 0 1 0"/></filter><linearGradient id="linearGradient-4" x1="100%" x2="1.941%" y1="100%" y2="100%"><stop offset="0%" stop-color="#A30014"/><stop offset="100%" stop-color="#D0021B"/></linearGradient><path id="path-5" d="M104.249224,-1.6488712e-14 L470,5.90706386e-15 L470,31 L104.249224,31 L118,15.5 L104.249224,-1.69586765e-14 Z"/><linearGradient id="linearGradient-6" x1="50%" x2="50%" y1="6.646%" y2="99.309%"><stop offset="0%" stop-color="#FF5F5F" stop-opacity=".121"/><stop offset="100%" stop-color="#FF5F5F" stop-opacity="0"/></linearGradient><linearGradient id="linearGradient-7" x1="100%" x2="0%" y1="50%" y2="50%"><stop offset="0%" stop-color="#A30014"/><stop offset="100%" stop-color="#A30014" stop-opacity="0"/></linearGradient></defs><g id="Page-1" fill="none" fill-rule="evenodd" stroke="none" stroke-width="1"><g id="GUI" transform="translate(0.000000, -317.000000)"><g id="footer" transform="translate(0.000000, 317.000000)"><rect id="bg" width="470" height="31" x="0" y="0" fill="#FBFBFB" fill-rule="evenodd"/><rect id="Rectangle" width="470" height="31" x="0" y="0" fill="url(#linearGradient-1)" fill-rule="evenodd"/><g id="XSS" fill="#D0021B" fill-opacity="1"><use filter="url(#filter-3)" xlink:href="#text-2"/><use xlink:href="#text-2"/></g><polygon id="Polygon" fill="#D0021B" fill-rule="evenodd" points="18.021 -2.521 33.521 9.084 33.521 33.521 2.521 33.521 2.521 9.084" transform="translate(18.021484, 15.500000) rotate(90.000000) translate(-18.021484, -15.500000)"/><rect id="Rectangle" width="470" height="2" x="0" y="0" fill="#D0021B" fill-rule="evenodd"/><g id="Combined-Shape" fill-rule="evenodd"><use fill="#D0021B" xlink:href="#path-5"/><use fill="url(#linearGradient-4)" xlink:href="#path-5"/></g><rect id="Rectangle" width="470" height="16" x="0" y="16" fill="url(#linearGradient-6)" fill-rule="evenodd"/><rect id="Rectangle" width="99" height="31" x="371" y="0" fill="url(#linearGradient-7)" fill-rule="evenodd"/></g></g></g></svg>